<?xml version="1.0" encoding="UTF-8" standalone="no"?>
<svg
   version="1.0"
   width="16"
   height="16"
   viewBox="0 0 12 12"
   preserveAspectRatio="xMidYMid"
   id="svg204"
   sodipodi:docname="toolbarButton-tts.svg"
   inkscape:version="1.2.2 (732a01da63, 2022-12-09)"
   xmlns:inkscape="http://www.inkscape.org/namespaces/inkscape"
   xmlns:sodipodi="http://sodipodi.sourceforge.net/DTD/sodipodi-0.dtd"
   xmlns="http://www.w3.org/2000/svg"
   xmlns:svg="http://www.w3.org/2000/svg">
  <defs
     id="defs208" />
  <sodipodi:namedview
     id="namedview206"
     pagecolor="#ffffff"
     bordercolor="#000000"
     borderopacity="0.25"
     inkscape:showpageshadow="2"
     inkscape:pageopacity="0.0"
     inkscape:pagecheckerboard="0"
     inkscape:deskcolor="#d1d1d1"
     inkscape:document-units="pt"
     showgrid="false"
     inkscape:zoom="39.234375"
     inkscape:cx="6.7670251"
     inkscape:cy="9.6853843"
     inkscape:window-width="1920"
     inkscape:window-height="1017"
     inkscape:window-x="-8"
     inkscape:window-y="-8"
     inkscape:window-maximized="1"
     inkscape:current-layer="g202" />
  <g
     transform="matrix(0.1,0,0,-0.1,0,512)"
     fill="#000000"
     stroke="none"
     id="g202">
    <g
       id="g284"
       transform="matrix(0.02754615,0,0,0.02767355,-10.502759,4989.1641)">
      <path
         d="m 1118,3334 c -36,-19 -48,-43 -48,-94 0,-33 6,-48 29,-71 l 29,-29 h 712 712 l 29,29 c 23,23 29,38 29,71 0,52 -13,76 -50,95 -43,22 -1401,22 -1442,-1 z"
         id="path194" />
      <path
         d="m 1124,2720 c -34,-13 -54,-50 -54,-98 0,-36 5,-49 31,-73 l 31,-29 h 710 710 l 29,29 c 39,39 41,106 5,148 l -24,28 -709,2 c -389,1 -718,-2 -729,-7 z"
         id="path196" />
      <path
         d="M 674,4720 C 557,4703 452,4621 408,4513 l -23,-58 -3,-1505 c -2,-1056 0,-1524 8,-1569 20,-116 85,-205 187,-257 l 58,-29 439,-3 c 321,-2 448,0 468,9 74,30 76,154 3,187 -19,9 -138,12 -431,12 -448,0 -457,1 -494,62 -20,33 -20,46 -20,1551 v 1517 l 34,38 34,37 886,3 886,2 v -265 c 0,-211 3,-273 15,-301 25,-60 47,-64 360,-64 h 275 v -688 -688 l -252,-144 -253,-145 -220,-6 c -239,-6 -283,-15 -360,-73 l -34,-26 h -421 -422 l -29,-29 c -42,-42 -42,-110 0,-152 l 29,-29 h 366 365 l 3,-308 3,-307 28,-57 c 36,-73 119,-149 195,-179 51,-20 79,-23 276,-27 l 218,-4 547,-311 c 300,-171 558,-313 572,-315 15,-2 40,3 58,12 65,34 62,-43 59,1232 l -3,1156 -33,29 c -54,49 -78,43 -284,-76 l -183,-105 -5,697 c -3,384 -9,705 -13,713 -18,31 -697,665 -719,672 -32,9 -1841,7 -1904,-2 z m 2126,-485 125,-125 h -133 -132 v 125 c 0,69 3,125 8,125 4,0 63,-56 132,-125 z m 810,-2615 c 0,-511 -4,-930 -8,-930 -5,0 -222,123 -483,273 l -474,272 -237,5 c -344,7 -330,-10 -326,392 3,261 4,278 24,304 50,68 52,69 309,72 l 233,4 469,268 c 257,148 474,269 481,269 9,1 12,-191 12,-929 z"
         id="path192" />
      <path
         d="m 4496,2089 c -32,-38 -32,-62 -4,-199 28,-138 30,-425 5,-572 -23,-135 -23,-144 17,-184 41,-41 97,-47 139,-14 31,25 42,56 62,180 36,228 29,449 -21,662 -30,128 -55,158 -129,158 -36,0 -48,-5 -69,-31 z"
         id="path198" />
      <path
         d="m 4117,2030 c -45,-35 -50,-73 -26,-185 26,-123 29,-346 5,-474 -16,-90 -11,-118 26,-158 28,-30 69,-37 111,-19 72,29 92,118 92,396 0,204 -16,336 -47,406 -24,53 -113,71 -161,34 z"
         id="path200" />
    </g>
  </g>
</svg>
